<svg width="527" height="138" viewBox="0 0 527 138" fill="none" xmlns="http://www.w3.org/2000/svg">
<path fill-rule="evenodd" clip-rule="evenodd" d="M142.355 91.735L146.232 73.8395L148.746 74.1093C159.067 75.2154 170.698 75.3682 181.081 75.3682C184.967 75.3682 190.898 75.0805 191.978 70.3323L192.943 65.8539C193.801 61.6453 193.04 61.3486 188.623 61.3486H175.257C158.527 61.3486 147.807 52.6436 151.552 35.2157L153.225 26.4208C157.19 7.97675 170.512 4.06491 187.1 3.99297C198.413 3.948 212.868 4.52354 223.827 7.43718L226.491 8.14761L222.446 25.9712L220.056 25.8273C209.885 25.2068 199.086 24.6762 188.871 24.6762C183.029 24.5144 178.576 24.0288 177.054 30.6204L176.23 34.7841C174.965 40.2157 177.355 39.3883 182.135 39.3883H195.899C212.222 39.3883 220.339 49.8289 217.117 65.2155L216.037 72.7424C213.373 92.6882 197.307 96.0425 180.771 96.0425C169.176 96.0425 156.163 95.6738 144.939 92.4634L142.363 91.726L142.355 91.735ZM256.959 62.122L249.638 95.0084H225.305L245.292 4.6944H288.055C307.034 4.6944 315.85 17.0234 311.813 36.1689C307.202 58.0213 296.81 64.6219 276.167 63.8935C273.751 63.8126 262.783 62.9763 256.95 62.122H256.959ZM317.257 75.0805L333.049 4.6944H357.25L342.432 71.8431C341.697 75.1524 343.954 74.3251 346.575 74.3251H383.318L378.83 95.0084H336.59C324.312 95.0084 314.133 89.1091 317.275 75.0805H317.257ZM391.922 95.0084L411.918 4.6944H436.252L416.265 95.0084H391.922ZM494.869 25.3777L479.529 95.0084H455.186L470.526 25.3777H444.44L449.114 4.6944H526.523L521.849 25.3777H494.86H494.869ZM260.933 43.7948H277.902C284.444 43.7948 286.409 39.0826 287.683 33.2103C288.746 28.3183 288.914 24.7931 283.382 24.7931H265.138L260.924 43.7858L260.933 43.7948Z" fill="white"/>
<path d="M155.995 122.977L161.395 113.696L162.661 122.977H155.995ZM143.983 132.913H150.171L153.588 127.302H163.041L163.98 132.913H169.68L165.83 107.419H159.483L143.983 132.913ZM183.595 119.065L185.206 111.745H191.394C193.27 111.745 193.916 112.473 193.447 115.369C193.022 118.057 191.783 119.065 189.668 119.065H183.604H183.595ZM174.903 132.913H180.488L182.728 122.869L187.18 123.174L190.225 132.913H196.528L192.775 122.905C194.217 122.725 197.829 122.203 199.042 115.863C200.245 109.757 197.262 107.419 192.872 107.419H180.541L174.894 132.913H174.903ZM213.665 119.523C212.054 126.915 213.32 133.093 220.746 133.156C225.172 133.228 228.129 133.048 231.156 132.176L231.988 128.336C229.43 128.507 226.031 128.687 222.915 128.651C218.613 128.507 217.923 125.863 219.224 120.18C221.127 111.493 223.951 111.637 226.783 111.637C230.775 111.601 235.06 112.158 235.493 112.194L236.325 108.39C233.369 107.554 230.51 107.131 226.403 107.131C218.462 107.131 215.497 111.385 213.665 119.514V119.523ZM243.832 120.36C245.629 112.23 247.567 111.745 251.913 111.745C256.1 111.745 257.871 112.41 256.118 120.36C254.604 127.23 252.595 128.588 248.169 128.588C243.301 128.588 242.309 127.329 243.832 120.36ZM238.264 119.874C235.688 131.484 240.495 133.093 247.355 133.093C254.418 133.093 259.243 132.113 261.686 120.854C264.271 109.065 259.632 107.257 252.692 107.257C245.868 107.257 240.893 107.923 238.264 119.883V119.874ZM265.156 132.913H270.785L274.388 116.547L282.116 132.913H287.622L293.269 107.419H287.684L284.037 123.993L276.397 107.419H270.812L265.165 132.913H265.156ZM300.882 128.552L304.626 111.745H310.256C313.805 111.745 315.204 113.624 313.708 120.234C312.593 125.279 310.503 128.552 306.75 128.552H300.882ZM294.367 132.913H306.573C313.637 132.913 317.319 129.532 319.258 120.863C320.621 114.631 320.232 107.419 311.814 107.419C310.734 107.419 300.005 107.419 300.005 107.419L294.358 132.913H294.367ZM323.17 132.913H328.756L334.403 107.419H328.818L323.17 132.913ZM337.829 119.523C336.218 126.915 337.484 133.093 344.91 133.156C349.336 133.228 352.293 133.048 355.32 132.176L356.152 128.336C353.594 128.507 350.195 128.687 347.079 128.651C342.777 128.507 342.087 125.863 343.388 120.18C345.291 111.493 348.115 111.637 350.947 111.637C354.94 111.601 359.224 112.158 359.658 112.194L360.49 108.39C357.533 107.554 354.674 107.131 350.567 107.131C342.627 107.131 339.661 111.385 337.829 119.514V119.523ZM361.198 132.913H366.783L372.431 107.419H366.845L361.198 132.913ZM381.53 120.36C383.327 112.23 385.266 111.745 389.612 111.745C393.799 111.745 395.569 112.41 393.817 120.36C392.303 127.23 390.294 128.588 385.868 128.588C380.999 128.588 380.008 127.329 381.521 120.36H381.53ZM375.963 119.874C373.387 131.484 378.193 133.093 385.053 133.093C392.117 133.093 396.941 132.113 399.384 120.854C401.969 109.065 397.331 107.257 390.391 107.257C383.566 107.257 378.592 107.923 375.963 119.883V119.874ZM402.854 132.913H408.484L412.087 116.547L419.814 132.913H425.32L430.968 107.419H425.382L421.735 123.993L414.096 107.419H408.511L402.863 132.913H402.854ZM442.997 122.977L448.397 113.696L449.663 122.977H442.997ZM430.985 132.913H437.173L440.59 127.302H450.043L450.982 132.913H456.682L452.832 107.419H446.485L430.985 132.913ZM468.544 128.552L472.288 111.745H477.918C481.467 111.745 482.866 113.624 481.37 120.234C480.254 125.279 478.165 128.552 474.412 128.552H468.544ZM462.029 132.913H474.244C481.308 132.913 484.99 129.532 486.929 120.863C488.292 114.631 487.902 107.419 479.484 107.419C478.404 107.419 467.676 107.419 467.676 107.419L462.029 132.913ZM498.436 120.36C500.233 112.23 502.172 111.745 506.518 111.745C510.705 111.745 512.475 112.41 510.722 120.36C509.209 127.23 507.199 128.588 502.773 128.588C497.905 128.588 496.914 127.329 498.427 120.36H498.436ZM492.868 119.874C490.292 131.484 495.099 133.093 501.959 133.093C509.023 133.093 513.847 132.113 516.29 120.854C518.875 109.065 514.237 107.257 507.297 107.257C500.472 107.257 495.497 107.923 492.868 119.883V119.874Z" fill="white"/>
<path fill-rule="evenodd" clip-rule="evenodd" d="M0.345116 84.5409L57.7048 111.834L57.8199 98.1199L0.221191 69.2173L0.345116 84.5409Z" fill="white"/>
<path fill-rule="evenodd" clip-rule="evenodd" d="M118.057 33.2728L60.6969 60.5657L60.5818 46.8518L115.649 19.2171L118.145 21.7531L118.057 33.2728Z" fill="white"/>
<path fill-rule="evenodd" clip-rule="evenodd" d="M73.1601 12.32L97.122 0.39568L110.364 13.8488L81.7641 27.8954L85.1278 24.4782L73.169 12.329L73.1601 12.32ZM16.2165 33.363L8.32069 41.4655L0.424883 33.363H0.398328L0.504559 21.3038L21.4656 0L45.1442 12.2121L33.0792 24.4692L36.9386 28.3811L16.3581 18.8038L16.2254 33.354L16.2165 33.363ZM117.437 105.512L112.692 110.332L84.9596 124.181L72.213 111.231L102.805 96.429L102.725 83.9921L102.716 82.895L102.681 82.859L110.099 75.422L117.517 82.859H117.534L117.437 105.503V105.512ZM6.47066 111.312L0 104.738L0.398328 88.5154L45.8346 111.366L33.0703 124.333L33.3359 124.594L6.47066 111.303V111.312ZM117.685 41.6363L72.3369 64.5498L85.1189 77.5443L84.34 78.3357L102.619 69.1541L102.681 78.0659L110.09 70.6289L117.552 78.1108C117.605 65.9707 117.649 53.8395 117.676 41.6453L117.685 41.6363ZM16.1634 38.318L16.0572 50.1165L45.6664 64.7386L33.0703 77.5353L34.2565 78.7403L0.159326 61.4383L0.354067 38.2011L8.32069 46.2946L16.1634 38.318Z" fill="white"/>
<path fill-rule="evenodd" clip-rule="evenodd" d="M37.8326 124.342L49.0125 112.975L58.6167 117.805L68.991 112.787L80.3655 124.342L76.2406 128.533L58.8291 137.229L42.6126 129.198L37.8326 124.342Z" fill="white"/>
<path fill-rule="evenodd" clip-rule="evenodd" d="M37.8326 77.5442L48.8708 66.3302L58.9619 71.3122L69.1592 66.1594L80.3655 77.5442L74.9305 83.0657L58.7671 91.1861L43.7633 83.5693L37.8326 77.5442Z" fill="white"/>
<path fill-rule="evenodd" clip-rule="evenodd" d="M58.9973 19.3702L69.9647 13.9116L80.3655 24.478L72.5494 32.4096L59.4222 38.8574L45.7107 32.4816L37.8326 24.478L48.2955 13.8486L58.9973 19.3702Z" fill="white"/>
</svg>
